<?xml version="1.0" encoding="UTF-8" standalone="no"?>
<!DOCTYPE svg PUBLIC "-//W3C//DTD SVG 1.1//EN"
 "http://www.w3.org/Graphics/SVG/1.1/DTD/svg11.dtd">
<!-- Generated by graphviz version 2.43.0 (0)
 -->
<!-- Title: G Pages: 1 -->
<svg width="255pt" height="332pt"
 viewBox="0.00 0.00 254.90 332.00" xmlns="http://www.w3.org/2000/svg" xmlns:xlink="http://www.w3.org/1999/xlink">
<g id="graph0" class="graph" transform="scale(1 1) rotate(0) translate(4 328)">
<title>G</title>
<polygon fill="white" stroke="transparent" points="-4,4 -4,-328 250.9,-328 250.9,4 -4,4"/>
<!-- args -->
<g id="node1" class="node">
<title>args</title>
<polygon fill="none" stroke="black" points="80.9,-108 26.9,-108 26.9,-72 80.9,-72 80.9,-108"/>
<text text-anchor="middle" x="53.9" y="-86.3" font-family="Times,serif" font-size="14.00">args</text>
</g>
<!-- autochecklist -->
<g id="node2" class="node">
<title>autochecklist</title>
<polygon fill="none" stroke="black" points="124.9,-36 36.9,-36 36.9,0 124.9,0 124.9,-36"/>
<text text-anchor="middle" x="80.9" y="-14.3" font-family="Times,serif" font-size="14.00">autochecklist</text>
</g>
<!-- args&#45;&gt;autochecklist -->
<g id="edge1" class="edge">
<title>args&#45;&gt;autochecklist</title>
<path fill="none" stroke="black" d="M60.57,-71.7C63.61,-63.81 67.28,-54.3 70.66,-45.55"/>
<polygon fill="black" stroke="black" points="73.97,-46.69 74.3,-36.1 67.44,-44.17 73.97,-46.69"/>
</g>
<!-- captions -->
<g id="node3" class="node">
<title>captions</title>
<polygon fill="none" stroke="black" points="80.9,-252 18.9,-252 18.9,-216 80.9,-216 80.9,-252"/>
<text text-anchor="middle" x="49.9" y="-230.3" font-family="Times,serif" font-size="14.00">captions</text>
</g>
<!-- config -->
<g id="node4" class="node">
<title>config</title>
<polygon fill="none" stroke="black" points="135.9,-180 81.9,-180 81.9,-144 135.9,-144 135.9,-180"/>
<text text-anchor="middle" x="108.9" y="-158.3" font-family="Times,serif" font-size="14.00">config</text>
</g>
<!-- config&#45;&gt;args -->
<g id="edge2" class="edge">
<title>config&#45;&gt;args</title>
<path fill="none" stroke="black" d="M95.3,-143.7C88.77,-135.39 80.83,-125.28 73.65,-116.14"/>
<polygon fill="black" stroke="black" points="76.27,-113.81 67.34,-108.1 70.76,-118.13 76.27,-113.81"/>
</g>
<!-- config&#45;&gt;autochecklist -->
<g id="edge3" class="edge">
<title>config&#45;&gt;autochecklist</title>
<path fill="none" stroke="black" d="M105.52,-143.87C100.73,-119.56 91.9,-74.82 86.22,-46.01"/>
<polygon fill="black" stroke="black" points="89.66,-45.32 84.29,-36.19 82.79,-46.68 89.66,-45.32"/>
</g>
<!-- dependoc -->
<g id="node5" class="node">
<title>dependoc</title>
<polygon fill="none" stroke="black" points="162.9,-324 94.9,-324 94.9,-288 162.9,-288 162.9,-324"/>
<text text-anchor="middle" x="128.9" y="-302.3" font-family="Times,serif" font-size="14.00">dependoc</text>
</g>
<!-- external_services -->
<g id="node6" class="node">
<title>external_services</title>
<polygon fill="none" stroke="black" points="246.9,-252 136.9,-252 136.9,-216 246.9,-216 246.9,-252"/>
<text text-anchor="middle" x="191.9" y="-230.3" font-family="Times,serif" font-size="14.00">external_services</text>
</g>
<!-- external_services&#45;&gt;autochecklist -->
<g id="edge4" class="edge">
<title>external_services&#45;&gt;autochecklist</title>
<path fill="none" stroke="black" d="M182.99,-215.58C167.85,-186.01 136.11,-124.13 108.9,-72 104.35,-63.29 99.35,-53.79 94.84,-45.27"/>
<polygon fill="black" stroke="black" points="97.79,-43.36 90.02,-36.16 91.61,-46.64 97.79,-43.36"/>
</g>
<!-- external_services&#45;&gt;config -->
<g id="edge5" class="edge">
<title>external_services&#45;&gt;config</title>
<path fill="none" stroke="black" d="M171.38,-215.7C161.03,-206.97 148.31,-196.24 137.06,-186.75"/>
<polygon fill="black" stroke="black" points="139.08,-183.88 129.18,-180.1 134.57,-189.23 139.08,-183.88"/>
</g>
<!-- lib -->
<g id="node7" class="node">
<title>lib</title>
<polygon fill="none" stroke="black" points="76.9,-324 22.9,-324 22.9,-288 76.9,-288 76.9,-324"/>
<text text-anchor="middle" x="49.9" y="-302.3" font-family="Times,serif" font-size="14.00">lib</text>
</g>
<!-- lib&#45;&gt;args -->
<g id="edge6" class="edge">
<title>lib&#45;&gt;args</title>
<path fill="none" stroke="black" d="M32.16,-287.6C23.66,-278 14.37,-265.34 9.9,-252 -5.85,-204.99 19.11,-148.89 37.4,-116.86"/>
<polygon fill="black" stroke="black" points="40.49,-118.5 42.57,-108.11 34.47,-114.94 40.49,-118.5"/>
</g>
<!-- lib&#45;&gt;autochecklist -->
<g id="edge7" class="edge">
<title>lib&#45;&gt;autochecklist</title>
<path fill="none" stroke="black" d="M28.19,-287.79C18.14,-278.41 7.26,-265.9 1.9,-252 -3.81,-237.2 5.77,-163.13 7.9,-144 11.46,-111.89 2.28,-100.28 17.9,-72 24.22,-60.55 34.08,-50.51 44.13,-42.34"/>
<polygon fill="black" stroke="black" points="46.35,-45.05 52.17,-36.19 42.1,-39.49 46.35,-45.05"/>
</g>
<!-- lib&#45;&gt;captions -->
<g id="edge8" class="edge">
<title>lib&#45;&gt;captions</title>
<path fill="none" stroke="black" d="M49.9,-287.7C49.9,-279.98 49.9,-270.71 49.9,-262.11"/>
<polygon fill="black" stroke="black" points="53.4,-262.1 49.9,-252.1 46.4,-262.1 53.4,-262.1"/>
</g>
<!-- lib&#45;&gt;config -->
<g id="edge9" class="edge">
<title>lib&#45;&gt;config</title>
<path fill="none" stroke="black" d="M66.1,-287.63C74.39,-277.84 83.96,-265 89.9,-252 98.9,-232.3 103.71,-208.17 106.23,-190.01"/>
<polygon fill="black" stroke="black" points="109.71,-190.45 107.47,-180.09 102.76,-189.58 109.71,-190.45"/>
</g>
<!-- lib&#45;&gt;external_services -->
<g id="edge10" class="edge">
<title>lib&#45;&gt;external_services</title>
<path fill="none" stroke="black" d="M76.94,-291.67C97.12,-281.72 125.1,-267.93 148.4,-256.44"/>
<polygon fill="black" stroke="black" points="149.99,-259.56 157.41,-252 146.89,-253.28 149.99,-259.56"/>
</g>
</g>
</svg>
