<?xml version="1.0" encoding="UTF-8" standalone="no"?>
<!DOCTYPE svg PUBLIC "-//W3C//DTD SVG 1.1//EN"
 "http://www.w3.org/Graphics/SVG/1.1/DTD/svg11.dtd">
<!-- Generated by graphviz version 2.43.0 (0)
 -->
<!-- Title: G Pages: 1 -->
<svg width="252pt" height="332pt"
 viewBox="0.00 0.00 252.28 332.00" xmlns="http://www.w3.org/2000/svg" xmlns:xlink="http://www.w3.org/1999/xlink">
<g id="graph0" class="graph" transform="scale(1 1) rotate(0) translate(4 328)">
<title>G</title>
<polygon fill="white" stroke="transparent" points="-4,4 -4,-328 248.28,-328 248.28,4 -4,4"/>
<!-- args -->
<g id="node1" class="node">
<title>args</title>
<polygon fill="none" stroke="black" points="76.28,-108 22.28,-108 22.28,-72 76.28,-72 76.28,-108"/>
<text text-anchor="middle" x="49.28" y="-86.3" font-family="Times,serif" font-size="14.00">args</text>
</g>
<!-- autochecklist -->
<g id="node2" class="node">
<title>autochecklist</title>
<polygon fill="none" stroke="black" points="120.28,-36 32.28,-36 32.28,0 120.28,0 120.28,-36"/>
<text text-anchor="middle" x="76.28" y="-14.3" font-family="Times,serif" font-size="14.00">autochecklist</text>
</g>
<!-- args&#45;&gt;autochecklist -->
<g id="edge1" class="edge">
<title>args&#45;&gt;autochecklist</title>
<path fill="none" stroke="black" d="M55.96,-71.7C59,-63.81 62.66,-54.3 66.04,-45.55"/>
<polygon fill="black" stroke="black" points="69.35,-46.69 69.68,-36.1 62.82,-44.17 69.35,-46.69"/>
</g>
<!-- captions -->
<g id="node3" class="node">
<title>captions</title>
<polygon fill="none" stroke="black" points="158.28,-324 96.28,-324 96.28,-288 158.28,-288 158.28,-324"/>
<text text-anchor="middle" x="127.28" y="-302.3" font-family="Times,serif" font-size="14.00">captions</text>
</g>
<!-- config -->
<g id="node4" class="node">
<title>config</title>
<polygon fill="none" stroke="black" points="117.28,-180 63.28,-180 63.28,-144 117.28,-144 117.28,-180"/>
<text text-anchor="middle" x="90.28" y="-158.3" font-family="Times,serif" font-size="14.00">config</text>
</g>
<!-- config&#45;&gt;args -->
<g id="edge2" class="edge">
<title>config&#45;&gt;args</title>
<path fill="none" stroke="black" d="M80.15,-143.7C75.43,-135.64 69.72,-125.89 64.5,-116.98"/>
<polygon fill="black" stroke="black" points="67.37,-114.96 59.3,-108.1 61.33,-118.5 67.37,-114.96"/>
</g>
<!-- config&#45;&gt;autochecklist -->
<g id="edge3" class="edge">
<title>config&#45;&gt;autochecklist</title>
<path fill="none" stroke="black" d="M89.89,-143.89C89.35,-125.94 88.09,-96.91 85.28,-72 84.33,-63.52 82.91,-54.34 81.48,-46.04"/>
<polygon fill="black" stroke="black" points="84.9,-45.34 79.69,-36.12 78.02,-46.58 84.9,-45.34"/>
</g>
<!-- dependoc -->
<g id="node5" class="node">
<title>dependoc</title>
<polygon fill="none" stroke="black" points="244.28,-324 176.28,-324 176.28,-288 244.28,-288 244.28,-324"/>
<text text-anchor="middle" x="210.28" y="-302.3" font-family="Times,serif" font-size="14.00">dependoc</text>
</g>
<!-- external_services -->
<g id="node6" class="node">
<title>external_services</title>
<polygon fill="none" stroke="black" points="208.28,-252 98.28,-252 98.28,-216 208.28,-216 208.28,-252"/>
<text text-anchor="middle" x="153.28" y="-230.3" font-family="Times,serif" font-size="14.00">external_services</text>
</g>
<!-- external_services&#45;&gt;autochecklist -->
<g id="edge4" class="edge">
<title>external_services&#45;&gt;autochecklist</title>
<path fill="none" stroke="black" d="M148.46,-215.81C139.93,-186.06 121.1,-123.25 100.28,-72 96.69,-63.16 92.48,-53.63 88.6,-45.12"/>
<polygon fill="black" stroke="black" points="91.78,-43.65 84.41,-36.04 85.42,-46.58 91.78,-43.65"/>
</g>
<!-- external_services&#45;&gt;config -->
<g id="edge5" class="edge">
<title>external_services&#45;&gt;config</title>
<path fill="none" stroke="black" d="M137.71,-215.7C130.08,-207.22 120.76,-196.86 112.41,-187.58"/>
<polygon fill="black" stroke="black" points="114.97,-185.2 105.68,-180.1 109.76,-189.88 114.97,-185.2"/>
</g>
<!-- lib -->
<g id="node7" class="node">
<title>lib</title>
<polygon fill="none" stroke="black" points="78.28,-324 24.28,-324 24.28,-288 78.28,-288 78.28,-324"/>
<text text-anchor="middle" x="51.28" y="-302.3" font-family="Times,serif" font-size="14.00">lib</text>
</g>
<!-- lib&#45;&gt;args -->
<g id="edge6" class="edge">
<title>lib&#45;&gt;args</title>
<path fill="none" stroke="black" d="M51.12,-287.85C50.78,-250.83 49.96,-163.18 49.54,-118.39"/>
<polygon fill="black" stroke="black" points="53.04,-118.2 49.44,-108.23 46.04,-118.26 53.04,-118.2"/>
</g>
<!-- lib&#45;&gt;autochecklist -->
<g id="edge7" class="edge">
<title>lib&#45;&gt;autochecklist</title>
<path fill="none" stroke="black" d="M42.11,-288C21.98,-248.23 -21.57,-146.87 13.28,-72 18.71,-60.34 28.1,-50.34 38,-42.26"/>
<polygon fill="black" stroke="black" points="40.13,-45.03 45.98,-36.2 35.9,-39.45 40.13,-45.03"/>
</g>
<!-- lib&#45;&gt;config -->
<g id="edge8" class="edge">
<title>lib&#45;&gt;config</title>
<path fill="none" stroke="black" d="M55.99,-287.87C62.66,-263.56 74.95,-218.82 82.86,-190.01"/>
<polygon fill="black" stroke="black" points="86.29,-190.76 85.56,-180.19 79.54,-188.91 86.29,-190.76"/>
</g>
<!-- lib&#45;&gt;external_services -->
<g id="edge9" class="edge">
<title>lib&#45;&gt;external_services</title>
<path fill="none" stroke="black" d="M76.23,-287.88C89.32,-278.89 105.54,-267.76 119.72,-258.03"/>
<polygon fill="black" stroke="black" points="121.97,-260.73 128.23,-252.19 118.01,-254.96 121.97,-260.73"/>
</g>
</g>
</svg>
