<?xml version="1.0" encoding="UTF-8" standalone="no"?>
<!DOCTYPE svg PUBLIC "-//W3C//DTD SVG 1.1//EN"
 "http://www.w3.org/Graphics/SVG/1.1/DTD/svg11.dtd">
<!-- Generated by graphviz version 2.43.0 (0)
 -->
<!-- Title: G Pages: 1 -->
<svg width="192pt" height="332pt"
 viewBox="0.00 0.00 192.01 332.00" xmlns="http://www.w3.org/2000/svg" xmlns:xlink="http://www.w3.org/1999/xlink">
<g id="graph0" class="graph" transform="scale(1 1) rotate(0) translate(4 328)">
<title>G</title>
<polygon fill="white" stroke="transparent" points="-4,4 -4,-328 188.01,-328 188.01,4 -4,4"/>
<!-- args -->
<g id="node1" class="node">
<title>args</title>
<polygon fill="none" stroke="black" points="77.01,-108 23.01,-108 23.01,-72 77.01,-72 77.01,-108"/>
<text text-anchor="middle" x="50.01" y="-86.3" font-family="Times,serif" font-size="14.00">args</text>
</g>
<!-- autochecklist -->
<g id="node2" class="node">
<title>autochecklist</title>
<polygon fill="none" stroke="black" points="121.01,-36 33.01,-36 33.01,0 121.01,0 121.01,-36"/>
<text text-anchor="middle" x="77.01" y="-14.3" font-family="Times,serif" font-size="14.00">autochecklist</text>
</g>
<!-- args&#45;&gt;autochecklist -->
<g id="edge1" class="edge">
<title>args&#45;&gt;autochecklist</title>
<path fill="none" stroke="black" d="M56.68,-71.7C59.72,-63.81 63.39,-54.3 66.77,-45.55"/>
<polygon fill="black" stroke="black" points="70.07,-46.69 70.41,-36.1 63.54,-44.17 70.07,-46.69"/>
</g>
<!-- config -->
<g id="node3" class="node">
<title>config</title>
<polygon fill="none" stroke="black" points="96.01,-180 42.01,-180 42.01,-144 96.01,-144 96.01,-180"/>
<text text-anchor="middle" x="69.01" y="-158.3" font-family="Times,serif" font-size="14.00">config</text>
</g>
<!-- config&#45;&gt;args -->
<g id="edge2" class="edge">
<title>config&#45;&gt;args</title>
<path fill="none" stroke="black" d="M64.31,-143.7C62.19,-135.9 59.64,-126.51 57.29,-117.83"/>
<polygon fill="black" stroke="black" points="60.65,-116.84 54.65,-108.1 53.89,-118.67 60.65,-116.84"/>
</g>
<!-- config&#45;&gt;autochecklist -->
<g id="edge3" class="edge">
<title>config&#45;&gt;autochecklist</title>
<path fill="none" stroke="black" d="M76.07,-143.67C79.84,-133.47 84.09,-120.22 86.01,-108 89.23,-87.42 86.6,-63.96 83.37,-46.3"/>
<polygon fill="black" stroke="black" points="86.73,-45.25 81.33,-36.13 79.86,-46.63 86.73,-45.25"/>
</g>
<!-- dependoc -->
<g id="node4" class="node">
<title>dependoc</title>
<polygon fill="none" stroke="black" points="159.01,-324 91.01,-324 91.01,-288 159.01,-288 159.01,-324"/>
<text text-anchor="middle" x="125.01" y="-302.3" font-family="Times,serif" font-size="14.00">dependoc</text>
</g>
<!-- external_services -->
<g id="node5" class="node">
<title>external_services</title>
<polygon fill="none" stroke="black" points="184.01,-252 74.01,-252 74.01,-216 184.01,-216 184.01,-252"/>
<text text-anchor="middle" x="129.01" y="-230.3" font-family="Times,serif" font-size="14.00">external_services</text>
</g>
<!-- external_services&#45;&gt;autochecklist -->
<g id="edge4" class="edge">
<title>external_services&#45;&gt;autochecklist</title>
<path fill="none" stroke="black" d="M127.23,-215.77C123.86,-185.98 115.47,-123.11 100.01,-72 97.33,-63.17 93.61,-53.84 89.94,-45.51"/>
<polygon fill="black" stroke="black" points="93.06,-43.92 85.72,-36.28 86.69,-46.83 93.06,-43.92"/>
</g>
<!-- external_services&#45;&gt;config -->
<g id="edge5" class="edge">
<title>external_services&#45;&gt;config</title>
<path fill="none" stroke="black" d="M114.17,-215.7C106.98,-207.3 98.21,-197.07 90.31,-187.86"/>
<polygon fill="black" stroke="black" points="92.83,-185.42 83.67,-180.1 87.52,-189.97 92.83,-185.42"/>
</g>
<!-- lib -->
<g id="node6" class="node">
<title>lib</title>
<polygon fill="none" stroke="black" points="73.01,-324 19.01,-324 19.01,-288 73.01,-288 73.01,-324"/>
<text text-anchor="middle" x="46.01" y="-302.3" font-family="Times,serif" font-size="14.00">lib</text>
</g>
<!-- lib&#45;&gt;autochecklist -->
<g id="edge6" class="edge">
<title>lib&#45;&gt;autochecklist</title>
<path fill="none" stroke="black" d="M37.55,-287.96C19.05,-248.11 -20.72,-146.59 14.01,-72 19.43,-60.34 28.82,-50.34 38.72,-42.26"/>
<polygon fill="black" stroke="black" points="40.86,-45.03 46.71,-36.2 36.62,-39.45 40.86,-45.03"/>
</g>
<!-- lib&#45;&gt;config -->
<g id="edge7" class="edge">
<title>lib&#45;&gt;config</title>
<path fill="none" stroke="black" d="M48.78,-287.87C52.7,-263.67 59.9,-219.21 64.57,-190.39"/>
<polygon fill="black" stroke="black" points="68.08,-190.62 66.22,-180.19 61.17,-189.5 68.08,-190.62"/>
</g>
<!-- lib&#45;&gt;external_services -->
<g id="edge8" class="edge">
<title>lib&#45;&gt;external_services</title>
<path fill="none" stroke="black" d="M66.52,-287.7C76.87,-278.97 89.59,-268.24 100.84,-258.75"/>
<polygon fill="black" stroke="black" points="103.34,-261.23 108.72,-252.1 98.82,-255.88 103.34,-261.23"/>
</g>
</g>
</svg>
