<?xml version="1.0" encoding="UTF-8" standalone="no"?>
<!DOCTYPE svg PUBLIC "-//W3C//DTD SVG 1.1//EN"
 "http://www.w3.org/Graphics/SVG/1.1/DTD/svg11.dtd">
<!-- Generated by graphviz version 2.43.0 (0)
 -->
<!-- Title: G Pages: 1 -->
<svg width="241pt" height="332pt"
 viewBox="0.00 0.00 241.00 332.00" xmlns="http://www.w3.org/2000/svg" xmlns:xlink="http://www.w3.org/1999/xlink">
<g id="graph0" class="graph" transform="scale(1 1) rotate(0) translate(4 328)">
<title>G</title>
<polygon fill="white" stroke="transparent" points="-4,4 -4,-328 237,-328 237,4 -4,4"/>
<!-- args -->
<g id="node1" class="node">
<title>args</title>
<polygon fill="none" stroke="black" points="54,-108 0,-108 0,-72 54,-72 54,-108"/>
<text text-anchor="middle" x="27" y="-86.3" font-family="Times,serif" font-size="14.00">args</text>
</g>
<!-- autochecklist -->
<g id="node2" class="node">
<title>autochecklist</title>
<polygon fill="none" stroke="black" points="145,-36 57,-36 57,0 145,0 145,-36"/>
<text text-anchor="middle" x="101" y="-14.3" font-family="Times,serif" font-size="14.00">autochecklist</text>
</g>
<!-- args&#45;&gt;autochecklist -->
<g id="edge1" class="edge">
<title>args&#45;&gt;autochecklist</title>
<path fill="none" stroke="black" d="M45.29,-71.7C54.43,-63.05 65.64,-52.45 75.6,-43.03"/>
<polygon fill="black" stroke="black" points="78.06,-45.52 82.92,-36.1 73.25,-40.43 78.06,-45.52"/>
</g>
<!-- captions -->
<g id="node3" class="node">
<title>captions</title>
<polygon fill="none" stroke="black" points="212,-180 150,-180 150,-144 212,-144 212,-180"/>
<text text-anchor="middle" x="181" y="-158.3" font-family="Times,serif" font-size="14.00">captions</text>
</g>
<!-- config -->
<g id="node4" class="node">
<title>config</title>
<polygon fill="none" stroke="black" points="87,-180 33,-180 33,-144 87,-144 87,-180"/>
<text text-anchor="middle" x="60" y="-158.3" font-family="Times,serif" font-size="14.00">config</text>
</g>
<!-- config&#45;&gt;args -->
<g id="edge2" class="edge">
<title>config&#45;&gt;args</title>
<path fill="none" stroke="black" d="M51.84,-143.7C48.09,-135.73 43.55,-126.1 39.38,-117.26"/>
<polygon fill="black" stroke="black" points="42.49,-115.66 35.06,-108.1 36.16,-118.64 42.49,-115.66"/>
</g>
<!-- config&#45;&gt;autochecklist -->
<g id="edge3" class="edge">
<title>config&#45;&gt;autochecklist</title>
<path fill="none" stroke="black" d="M64.95,-143.87C71.96,-119.56 84.88,-74.82 93.2,-46.01"/>
<polygon fill="black" stroke="black" points="96.63,-46.77 96.04,-36.19 89.9,-44.83 96.63,-46.77"/>
</g>
<!-- dependoc -->
<g id="node5" class="node">
<title>dependoc</title>
<polygon fill="none" stroke="black" points="233,-324 165,-324 165,-288 233,-288 233,-324"/>
<text text-anchor="middle" x="199" y="-302.3" font-family="Times,serif" font-size="14.00">dependoc</text>
</g>
<!-- external_services -->
<g id="node6" class="node">
<title>external_services</title>
<polygon fill="none" stroke="black" points="175,-252 65,-252 65,-216 175,-216 175,-252"/>
<text text-anchor="middle" x="120" y="-230.3" font-family="Times,serif" font-size="14.00">external_services</text>
</g>
<!-- external_services&#45;&gt;autochecklist -->
<g id="edge4" class="edge">
<title>external_services&#45;&gt;autochecklist</title>
<path fill="none" stroke="black" d="M118.48,-215.85C115.19,-178.83 107.41,-91.18 103.43,-46.39"/>
<polygon fill="black" stroke="black" points="106.9,-45.88 102.53,-36.23 99.93,-46.5 106.9,-45.88"/>
</g>
<!-- external_services&#45;&gt;captions -->
<g id="edge5" class="edge">
<title>external_services&#45;&gt;captions</title>
<path fill="none" stroke="black" d="M135.08,-215.7C142.39,-207.3 151.31,-197.07 159.34,-187.86"/>
<polygon fill="black" stroke="black" points="162.16,-189.94 166.09,-180.1 156.89,-185.34 162.16,-189.94"/>
</g>
<!-- external_services&#45;&gt;config -->
<g id="edge6" class="edge">
<title>external_services&#45;&gt;config</title>
<path fill="none" stroke="black" d="M105.17,-215.7C97.98,-207.3 89.2,-197.07 81.31,-187.86"/>
<polygon fill="black" stroke="black" points="83.83,-185.42 74.66,-180.1 78.51,-189.97 83.83,-185.42"/>
</g>
<!-- lib -->
<g id="node7" class="node">
<title>lib</title>
<polygon fill="none" stroke="black" points="147,-324 93,-324 93,-288 147,-288 147,-324"/>
<text text-anchor="middle" x="120" y="-302.3" font-family="Times,serif" font-size="14.00">lib</text>
</g>
<!-- lib&#45;&gt;args -->
<g id="edge7" class="edge">
<title>lib&#45;&gt;args</title>
<path fill="none" stroke="black" d="M92.86,-291.8C76.78,-282.69 57.22,-269.13 45,-252 16.77,-212.44 18.45,-152.93 22.52,-118.43"/>
<polygon fill="black" stroke="black" points="26.04,-118.54 23.89,-108.16 19.1,-117.61 26.04,-118.54"/>
</g>
<!-- lib&#45;&gt;autochecklist -->
<g id="edge8" class="edge">
<title>lib&#45;&gt;autochecklist</title>
<path fill="none" stroke="black" d="M147.17,-290.02C167.74,-278.19 193.66,-262.04 201,-252 229.81,-212.59 239.22,-189.29 221,-144 203.73,-101.07 163.89,-64.6 134.84,-42.33"/>
<polygon fill="black" stroke="black" points="136.69,-39.34 126.58,-36.16 132.5,-44.95 136.69,-39.34"/>
</g>
<!-- lib&#45;&gt;captions -->
<g id="edge9" class="edge">
<title>lib&#45;&gt;captions</title>
<path fill="none" stroke="black" d="M147.1,-290.39C160.89,-281.34 176.33,-268.32 184,-252 193.02,-232.82 191.52,-208.66 188.18,-190.35"/>
<polygon fill="black" stroke="black" points="191.55,-189.39 186.06,-180.33 184.7,-190.84 191.55,-189.39"/>
</g>
<!-- lib&#45;&gt;config -->
<g id="edge10" class="edge">
<title>lib&#45;&gt;config</title>
<path fill="none" stroke="black" d="M92.9,-290.39C79.11,-281.34 63.67,-268.32 56,-252 46.93,-232.72 48.78,-208.43 52.42,-190.09"/>
<polygon fill="black" stroke="black" points="55.84,-190.85 54.64,-180.33 49.01,-189.31 55.84,-190.85"/>
</g>
<!-- lib&#45;&gt;external_services -->
<g id="edge11" class="edge">
<title>lib&#45;&gt;external_services</title>
<path fill="none" stroke="black" d="M120,-287.7C120,-279.98 120,-270.71 120,-262.11"/>
<polygon fill="black" stroke="black" points="123.5,-262.1 120,-252.1 116.5,-262.1 123.5,-262.1"/>
</g>
</g>
</svg>
